{
  "accessors": [
    {
      "bufferView": 2,
      "componentType": 5126,
      "count": 65532,
      "max": [
        0.8624349236488342,
        0.8624348640441895,
        1.0611298084259033
      ],
      "min": [
        -0.8624349236488342,
        -0.8624348640441895,
        -0.6043881177902222
      ],
      "type": "VEC3"
    },
    {
      "bufferView": 2,
      "byteOffset": 786384,
      "componentType": 5126,
      "count": 65532,
      "max": [
        1.0,
        1.0,
        1.0
      ],
      "min": [
        -1.0,
        -1.0,
        -1.0
      ],
      "type": "VEC3"
    },
    {
      "bufferView": 1,
      "componentType": 5126,
      "count": 65532,
      "max": [
        1.0,
        0.9999178051948547
      ],
      "min": [
        0.0,
        0.0
      ],
      "type": "VEC2"
    },
    {
      "bufferView": 1,
      "byteOffset": 524256,
      "componentType": 5126,
      "count": 65532,
      "max": [
        1.0,
        0.9999178051948547
      ],
      "min": [
        0.0,
        0.0
      ],
      "type": "VEC2"
    },
    {
      "bufferView": 0,
      "componentType": 5125,
      "count": 212310,
      "type": "SCALAR"
    },
    {
      "bufferView": 2,
      "byteOffset": 1572768,
      "componentType": 5126,
      "count": 65533,
      "max": [
        0.8624349236488342,
        0.8367571234703064,
        1.0611298084259033
      ],
      "min": [
        -0.8624348640441895,
        -0.8367571234703064,
        -0.6043881177902222
      ],
      "type": "VEC3"
    },
    {
      "bufferView": 2,
      "byteOffset": 2359164,
      "componentType": 5126,
      "count": 65533,
      "max": [
        1.0,
        1.0,
        1.0
      ],
      "min": [
        -1.0,
        -1.0,
        -1.0
      ],
      "type": "VEC3"
    },
    {
      "bufferView": 1,
      "byteOffset": 1048512,
      "componentType": 5126,
      "count": 65533,
      "max": [
        0.9999862909317017,
        0.9999023079872131
      ],
      "min": [
        0.0,
        0.0
      ],
      "type": "VEC2"
    },
    {
      "bufferView": 1,
      "byteOffset": 1572776,
      "componentType": 5126,
      "count": 65533,
      "max": [
        0.9999862909317017,
        0.9999023079872131
      ],
      "min": [
        0.0,
        0.0
      ],
      "type": "VEC2"
    },
    {
      "bufferView": 0,
      "byteOffset": 849240,
      "componentType": 5125,
      "count": 170280,
      "type": "SCALAR"
    },
    {
      "bufferView": 2,
      "byteOffset": 3145560,
      "componentType": 5126,
      "count": 65532,
      "max": [
        0.8529745936393738,
        0.8624348640441895,
        1.0611298084259033
      ],
      "min": [
        -0.8624348640441895,
        -0.8624348640441895,
        -0.6043881177902222
      ],
      "type": "VEC3"
    },
    {
      "bufferView": 2,
      "byteOffset": 3931944,
      "componentType": 5126,
      "count": 65532,
      "max": [
        1.0,
        1.0,
        1.0
      ],
      "min": [
        -1.0,
        -1.0,
        -1.0
      ],
      "type": "VEC3"
    },
    {
      "bufferView": 1,
      "byteOffset": 2097040,
      "componentType": 5126,
      "count": 65532,
      "max": [
        0.9999862909317017,
        0.9995619654655457
      ],
      "min": [
        0.0,
        0.0
      ],
      "type": "VEC2"
    },
    {
      "bufferView": 1,
      "byteOffset": 2621296,
      "componentType": 5126,
      "count": 65532,
      "max": [
        0.9999862909317017,
        0.9995619654655457
      ],
      "min": [
        0.0,
        0.0
      ],
      "type": "VEC2"
    },
    {
      "bufferView": 0,
      "byteOffset": 1530360,
      "componentType": 5125,
      "count": 164193,
      "type": "SCALAR"
    },
    {
      "bufferView": 2,
      "byteOffset": 4718328,
      "componentType": 5126,
      "count": 63133,
      "max": [
        0.8348664045333862,
        0.8624348640441895,
        1.0611294507980347
      ],
      "min": [
        -0.8624349236488342,
        -0.8624348640441895,
        -0.6043881177902222
      ],
      "type": "VEC3"
    },
    {
      "bufferView": 2,
      "byteOffset": 5475924,
      "componentType": 5126,
      "count": 63133,
      "max": [
        1.0,
        1.0,
        1.0
      ],
      "min": [
        -1.0,
        -1.0,
        -1.0
      ],
      "type": "VEC3"
    },
    {
      "bufferView": 1,
      "byteOffset": 3145552,
      "componentType": 5126,
      "count": 63133,
      "max": [
        0.9999801516532898,
        0.9999090433120728
      ],
      "min": [
        0.0,
        0.0
      ],
      "type": "VEC2"
    },
    {
      "bufferView": 1,
      "byteOffset": 3650616,
      "componentType": 5126,
      "count": 63133,
      "max": [
        0.9999801516532898,
        0.9999090433120728
      ],
      "min": [
        0.0,
        0.0
      ],
      "type": "VEC2"
    },
    {
      "bufferView": 0,
      "byteOffset": 2187132,
      "componentType": 5125,
      "count": 167733,
      "type": "SCALAR"
    },
    {
      "bufferView": 2,
      "byteOffset": 6233520,
      "componentType": 5126,
      "count": 65533,
      "max": [
        0.7710978984832764,
        0.7799999117851257,
        1.5307672023773193
      ],
      "min": [
        -0.779999852180481,
        -0.7710978388786316,
        1.0319994688034058
      ],
      "type": "VEC3"
    },
    {
      "bufferView": 2,
      "byteOffset": 7019916,
      "componentType": 5126,
      "count": 65533,
      "max": [
        1.0,
        1.0,
        1.0
      ],
      "min": [
        -1.0,
        -1.0,
        -1.0
      ],
      "type": "VEC3"
    },
    {
      "bufferView": 1,
      "byteOffset": 4155680,
      "componentType": 5126,
      "count": 65533,
      "max": [
        0.9999887943267822,
        0.999761700630188
      ],
      "min": [
        0.0,
        0.0
      ],
      "type": "VEC2"
    },
    {
      "bufferView": 1,
      "byteOffset": 4679944,
      "componentType": 5126,
      "count": 65533,
      "max": [
        0.9999887943267822,
        0.999761700630188
      ],
      "min": [
        0.0,
        0.0
      ],
      "type": "VEC2"
    },
    {
      "bufferView": 0,
      "byteOffset": 2858064,
      "componentType": 5125,
      "count": 159663,
      "type": "SCALAR"
    },
    {
      "bufferView": 2,
      "byteOffset": 7806312,
      "componentType": 5126,
      "count": 65532,
      "max": [
        0.779999852180481,
        0.7710978388786316,
        1.3206794261932373
      ],
      "min": [
        -0.697524905204773,
        -0.7710978388786316,
        1.0319994688034058
      ],
      "type": "VEC3"
    },
    {
      "bufferView": 2,
      "byteOffset": 8592696,
      "componentType": 5126,
      "count": 65532,
      "max": [
        1.0,
        1.0,
        1.0
      ],
      "min": [
        -1.0,
        -1.0,
        -1.0
      ],
      "type": "VEC3"
    },
    {
      "bufferView": 1,
      "byteOffset": 5204208,
      "componentType": 5126,
      "count": 65532,
      "max": [
        0.9999826550483704,
        0.9992229342460632
      ],
      "min": [
        0.0,
        0.0
      ],
      "type": "VEC2"
    },
    {
      "bufferView": 1,
      "byteOffset": 5728464,
      "componentType": 5126,
      "count": 65532,
      "max": [
        0.9999826550483704,
        0.9992229342460632
      ],
      "min": [
        0.0,
        0.0
      ],
      "type": "VEC2"
    },
    {
      "bufferView": 0,
      "byteOffset": 3496716,
      "componentType": 5125,
      "count": 151251,
      "type": "SCALAR"
    },
    {
      "bufferView": 2,
      "byteOffset": 9379080,
      "componentType": 5126,
      "count": 65532,
      "max": [
        0.7710978388786316,
        0.7710978388786316,
        1.3206794261932373
      ],
      "min": [
        -0.7799997925758362,
        -0.7799999117851257,
        1.0319994688034058
      ],
      "type": "VEC3"
    },
    {
      "bufferView": 2,
      "byteOffset": 10165464,
      "componentType": 5126,
      "count": 65532,
      "max": [
        1.0,
        1.0,
        1.0
      ],
      "min": [
        -1.0,
        -1.0,
        -1.0
      ],
      "type": "VEC3"
    },
    {
      "bufferView": 1,
      "byteOffset": 6252720,
      "componentType": 5126,
      "count": 65532,
      "max": [
        1.0,
        0.9995131492614746
      ],
      "min": [
        0.0,
        0.0
      ],
      "type": "VEC2"
    },
    {
      "bufferView": 1,
      "byteOffset": 6776976,
      "componentType": 5126,
      "count": 65532,
      "max": [
        1.0,
        0.9995131492614746
      ],
      "min": [
        0.0,
        0.0
      ],
      "type": "VEC2"
    },
    {
      "bufferView": 0,
      "byteOffset": 4101720,
      "componentType": 5125,
      "count": 156090,
      "type": "SCALAR"
    },
    {
      "bufferView": 2,
      "byteOffset": 10951848,
      "componentType": 5126,
      "count": 9331,
      "max": [
        0.5840628147125244,
        0.49042007327079773,
        1.2046689987182617
      ],
      "min": [
        -0.7710978388786316,
        -0.6030454635620117,
        1.0319994688034058
      ],
      "type": "VEC3"
    },
    {
      "bufferView": 2,
      "byteOffset": 11063820,
      "componentType": 5126,
      "count": 9331,
      "max": [
        1.0,
        1.0,
        1.0
      ],
      "min": [
        -1.0,
        -1.0,
        -1.0
      ],
      "type": "VEC3"
    },
    {
      "bufferView": 1,
      "byteOffset": 7301232,
      "componentType": 5126,
      "count": 9331,
      "max": [
        0.9999856948852539,
        0.999122679233551
      ],
      "min": [
        0.0,
        0.0
      ],
      "type": "VEC2"
    },
    {
      "bufferView": 1,
      "byteOffset": 7375880,
      "componentType": 5126,
      "count": 9331,
      "max": [
        0.9999856948852539,
        0.999122679233551
      ],
      "min": [
        0.0,
        0.0
      ],
      "type": "VEC2"
    },
    {
      "bufferView": 0,
      "byteOffset": 4726080,
      "componentType": 5125,
      "count": 22284,
      "type": "SCALAR"
    },
    {
      "bufferView": 2,
      "byteOffset": 11175792,
      "componentType": 5126,
      "count": 65533,
      "max": [
        0.209568053483963,
        1.9564505815505981,
        0.16145066916942596
      ],
      "min": [
        -2.0061564445495605,
        -0.20939017832279205,
        -3.131795883178711
      ],
      "type": "VEC3"
    },
    {
      "bufferView": 2,
      "byteOffset": 11962188,
      "componentType": 5126,
      "count": 65533,
      "max": [
        1.0,
        1.0,
        1.0
      ],
      "min": [
        -1.0,
        -1.0,
        -1.0
      ],
      "type": "VEC3"
    },
    {
      "bufferView": 1,
      "byteOffset": 7450528,
      "componentType": 5126,
      "count": 65533,
      "max": [
        0.9999885559082031,
        0.9999580383300781
      ],
      "min": [
        0.0,
        0.0
      ],
      "type": "VEC2"
    },
    {
      "bufferView": 1,
      "byteOffset": 7974792,
      "componentType": 5126,
      "count": 65533,
      "max": [
        0.9999885559082031,
        0.9999580383300781
      ],
      "min": [
        0.0,
        0.0
      ],
      "type": "VEC2"
    },
    {
      "bufferView": 0,
      "byteOffset": 4815216,
      "componentType": 5125,
      "count": 144927,
      "type": "SCALAR"
    },
    {
      "bufferView": 2,
      "byteOffset": 12748584,
      "componentType": 5126,
      "count": 65532,
      "max": [
        0.1958916336297989,
        1.9424465894699097,
        -0.11916927248239517
      ],
      "min": [
        -1.992479920387268,
        -0.1953861266374588,
        -1.8443416357040405
      ],
      "type": "VEC3"
    },
    {
      "bufferView": 2,
      "byteOffset": 13534968,
      "componentType": 5126,
      "count": 65532,
      "max": [
        1.0,
        1.0,
        1.0
      ],
      "min": [
        -1.0,
        -1.0,
        -1.0
      ],
      "type": "VEC3"
    },
    {
      "bufferView": 1,
      "byteOffset": 8499056,
      "componentType": 5126,
      "count": 65532,
      "max": [
        1.0,
        0.999927282333374
      ],
      "min": [
        0.0,
        0.0
      ],
      "type": "VEC2"
    },
    {
      "bufferView": 1,
      "byteOffset": 9023312,
      "componentType": 5126,
      "count": 65532,
      "max": [
        1.0,
        0.999927282333374
      ],
      "min": [
        0.0,
        0.0
      ],
      "type": "VEC2"
    },
    {
      "bufferView": 0,
      "byteOffset": 5394924,
      "componentType": 5125,
      "count": 106701,
      "type": "SCALAR"
    },
    {
      "bufferView": 2,
      "byteOffset": 14321352,
      "componentType": 5126,
      "count": 65532,
      "max": [
        0.21149197220802307,
        1.9579946994781494,
        0.0303199402987957
      ],
      "min": [
        -2.008080244064331,
        -0.2109343409538269,
        -3.131795883178711
      ],
      "type": "VEC3"
    },
    {
      "bufferView": 2,
      "byteOffset": 15107736,
      "componentType": 5126,
      "count": 65532,
      "max": [
        1.0,
        1.0,
        1.0
      ],
      "min": [
        -1.0,
        -1.0,
        -1.0
      ],
      "type": "VEC3"
    },
    {
      "bufferView": 1,
      "byteOffset": 9547568,
      "componentType": 5126,
      "count": 65532,
      "max": [
        0.9996975660324097,
        0.9998607635498047
      ],
      "min": [
        0.0,
        0.0
      ],
      "type": "VEC2"
    },
    {
      "bufferView": 1,
      "byteOffset": 10071824,
      "componentType": 5126,
      "count": 65532,
      "max": [
        0.9996975660324097,
        0.9998607635498047
      ],
      "min": [
        0.0,
        0.0
      ],
      "type": "VEC2"
    },
    {
      "bufferView": 0,
      "byteOffset": 5821728,
      "componentType": 5125,
      "count": 109008,
      "type": "SCALAR"
    },
    {
      "bufferView": 2,
      "byteOffset": 15894120,
      "componentType": 5126,
      "count": 65532,
      "max": [
        0.20956739783287048,
        1.9564502239227295,
        -0.8376967906951904
      ],
      "min": [
        -1.9833093881607056,
        -0.20939017832279205,
        -1.6781004667282104
      ],
      "type": "VEC3"
    },
    {
      "bufferView": 2,
      "byteOffset": 16680504,
      "componentType": 5126,
      "count": 65532,
      "max": [
        1.0,
        1.0,
        1.0
      ],
      "min": [
        -1.0,
        -1.0,
        -1.0
      ],
      "type": "VEC3"
    },
    {
      "bufferView": 1,
      "byteOffset": 10596080,
      "componentType": 5126,
      "count": 65532,
      "max": [
        0.9995012283325195,
        0.9998941421508789
      ],
      "min": [
        0.0,
        0.0
      ],
      "type": "VEC2"
    },
    {
      "bufferView": 1,
      "byteOffset": 11120336,
      "componentType": 5126,
      "count": 65532,
      "max": [
        0.9995012283325195,
        0.9998941421508789
      ],
      "min": [
        0.0,
        0.0
      ],
      "type": "VEC2"
    },
    {
      "bufferView": 0,
      "byteOffset": 6257760,
      "componentType": 5125,
      "count": 105954,
      "type": "SCALAR"
    },
    {
      "bufferView": 2,
      "byteOffset": 17466888,
      "componentType": 5126,
      "count": 47435,
      "max": [
        0.17918553948402405,
        1.9564505815505981,
        -0.16791991889476776
      ],
      "min": [
        -2.0061557292938232,
        -0.2093900740146637,
        -0.8887509107589722
      ],
      "type": "VEC3"
    },
    {
      "bufferView": 2,
      "byteOffset": 18036108,
      "componentType": 5126,
      "count": 47435,
      "max": [
        1.0,
        1.0,
        1.0
      ],
      "min": [
        -1.0,
        -1.0,
        -1.0
      ],
      "type": "VEC3"
    },
    {
      "bufferView": 1,
      "byteOffset": 11644592,
      "componentType": 5126,
      "count": 47435,
      "max": [
        0.9997749328613281,
        0.9998435974121094
      ],
      "min": [
        0.0,
        0.0
      ],
      "type": "VEC2"
    },
    {
      "bufferView": 1,
      "byteOffset": 12024072,
      "componentType": 5126,
      "count": 47435,
      "max": [
        0.9997749328613281,
        0.9998435974121094
      ],
      "min": [
        0.0,
        0.0
      ],
      "type": "VEC2"
    },
    {
      "bufferView": 0,
      "byteOffset": 6681576,
      "componentType": 5125,
      "count": 76650,
      "type": "SCALAR"
    },
    {
      "bufferView": 2,
      "byteOffset": 18605328,
      "componentType": 5126,
      "count": 40448,
      "max": [
        0.016938412562012672,
        1.7639986276626587,
        0.045423589646816254
      ],
      "min": [
        -1.8132288455963135,
        -0.01693841814994812,
        -0.04217953607439995
      ],
      "type": "VEC3"
    },
    {
      "bufferView": 2,
      "byteOffset": 19090704,
      "componentType": 5126,
      "count": 40448,
      "max": [
        0.9952422380447388,
        0.9952417016029358,
        1.0
      ],
      "min": [
        -0.9952422380447388,
        -0.9952417016029358,
        -1.0
      ],
      "type": "VEC3"
    },
    {
      "bufferView": 1,
      "byteOffset": 12403552,
      "componentType": 5126,
      "count": 40448,
      "max": [
        1.0,
        0.9943218231201172
      ],
      "min": [
        0.0,
        0.0
      ],
      "type": "VEC2"
    },
    {
      "bufferView": 0,
      "byteOffset": 6988176,
      "componentType": 5125,
      "count": 59088,
      "type": "SCALAR"
    },
    {
      "bufferView": 2,
      "byteOffset": 19576080,
      "componentType": 5126,
      "count": 1056,
      "max": [
        0.38025546073913574,
        0.3078954219818115,
        0.0036169718950986862
      ],
      "min": [
        -0.38025546073913574,
        -0.3078954219818115,
        -0.012083581648766994
      ],
      "type": "VEC3"
    },
    {
      "bufferView": 2,
      "byteOffset": 19588752,
      "componentType": 5126,
      "count": 1056,
      "max": [
        1.0,
        1.0,
        1.0
      ],
      "min": [
        -1.0,
        -1.0,
        -1.0
      ],
      "type": "VEC3"
    },
    {
      "bufferView": 3,
      "componentType": 5126,
      "count": 1056,
      "max": [
        1.0,
        1.0,
        1.0,
        1.0
      ],
      "min": [
        -1.0,
        -1.0,
        -1.0,
        -1.0
      ],
      "type": "VEC4"
    },
    {
      "bufferView": 1,
      "byteOffset": 12727136,
      "componentType": 5126,
      "count": 1056,
      "max": [
        0.9563295245170593,
        1.0
      ],
      "min": [
        0.0,
        0.0
      ],
      "type": "VEC2"
    },
    {
      "bufferView": 1,
      "byteOffset": 12735584,
      "componentType": 5126,
      "count": 1056,
      "max": [
        0.9563295245170593,
        1.0
      ],
      "min": [
        0.0,
        0.0
      ],
      "type": "VEC2"
    },
    {
      "bufferView": 0,
      "byteOffset": 7224528,
      "componentType": 5125,
      "count": 3210,
      "type": "SCALAR"
    },
    {
      "bufferView": 2,
      "byteOffset": 19601424,
      "componentType": 5126,
      "count": 1444,
      "max": [
        0.35514578223228455,
        0.3153211176395416,
        0.0037001571618020535
      ],
      "min": [
        -0.35514578223228455,
        -0.3153211176395416,
        -0.006594546139240265
      ],
      "type": "VEC3"
    },
    {
      "bufferView": 2,
      "byteOffset": 19618752,
      "componentType": 5126,
      "count": 1444,
      "max": [
        1.0,
        1.0,
        1.0
      ],
      "min": [
        -1.0,
        -1.0,
        -1.0
      ],
      "type": "VEC3"
    },
    {
      "bufferView": 3,
      "byteOffset": 16896,
      "componentType": 5126,
      "count": 1444,
      "max": [
        2.133652742486447e-05,
        1.0,
        1.0,
        1.0
      ],
      "min": [
        -1.657858956605196e-05,
        -1.0,
        -1.0,
        -1.0
      ],
      "type": "VEC4"
    },
    {
      "bufferView": 1,
      "byteOffset": 12744032,
      "componentType": 5126,
      "count": 1444,
      "max": [
        1.0000001192092896,
        0.9944533705711365
      ],
      "min": [
        0.0,
        0.0
      ],
      "type": "VEC2"
    },
    {
      "bufferView": 1,
      "byteOffset": 12755584,
      "componentType": 5126,
      "count": 1444,
      "max": [
        1.0000001192092896,
        0.9944533705711365
      ],
      "min": [
        0.0,
        0.0
      ],
      "type": "VEC2"
    },
    {
      "bufferView": 0,
      "byteOffset": 7237368,
      "componentType": 5125,
      "count": 2520,
      "type": "SCALAR"
    },
    {
      "bufferView": 2,
      "byteOffset": 19636080,
      "componentType": 5126,
      "count": 768,
      "max": [
        0.20693671703338623,
        0.011770768091082573,
        0.0
      ],
      "min": [
        -0.20693668723106384,
        -0.011770843528211117,
        -0.41387397050857544
      ],
      "type": "VEC3"
    },
    {
      "bufferView": 2,
      "byteOffset": 19645296,
      "componentType": 5126,
      "count": 768,
      "max": [
        1.0,
        0.9951848983764648,
        1.0
      ],
      "min": [
        -1.0,
        -0.9951848387718201,
        -1.0
      ],
      "type": "VEC3"
    },
    {
      "bufferView": 1,
      "byteOffset": 12767136,
      "componentType": 5126,
      "count": 768,
      "max": [
        0.6572715044021606,
        0.6788477301597595
      ],
      "min": [
        0.3435572683811188,
        0.17846450209617615
      ],
      "type": "VEC2"
    },
    {
      "bufferView": 0,
      "byteOffset": 7247448,
      "componentType": 5125,
      "count": 1488,
      "type": "SCALAR"
    },
    {
      "bufferView": 2,
      "byteOffset": 19654512,
      "componentType": 5126,
      "count": 47647,
      "max": [
        0.17762094736099243,
        0.04961341619491577,
        0.15218129754066467
      ],
      "min": [
        -0.1776210516691208,
        -0.049613405019044876,
        -0.12430624663829803
      ],
      "type": "VEC3"
    },
    {
      "bufferView": 2,
      "byteOffset": 20226276,
      "componentType": 5126,
      "count": 47647,
      "max": [
        1.0,
        1.0,
        1.0
      ],
      "min": [
        -1.0,
        -1.0,
        -1.0
      ],
      "type": "VEC3"
    },
    {
      "bufferView": 1,
      "byteOffset": 12773280,
      "componentType": 5126,
      "count": 47647,
      "max": [
        0.9999167919158936,
        1.0
      ],
      "min": [
        0.0,
        0.0
      ],
      "type": "VEC2"
    },
    {
      "bufferView": 1,
      "byteOffset": 13154456,
      "componentType": 5126,
      "count": 47647,
      "max": [
        0.9999167919158936,
        1.0
      ],
      "min": [
        0.0,
        0.0
      ],
      "type": "VEC2"
    },
    {
      "bufferView": 0,
      "byteOffset": 7253400,
      "componentType": 5125,
      "count": 114732,
      "type": "SCALAR"
    }
  ],
  "asset": {
    "extras": {
      "author": "Shreyas (https://sketchfab.com/atarangtar)",
      "license": "CC-BY-4.0 (http://creativecommons.org/licenses/by/4.0/)",
      "source": "https://sketchfab.com/3d-models/charminar-bb880d064036496ca14ebac08a243af0",
      "title": "Charminar"
    },
    "generator": "Sketchfab-12.66.0",
    "version": "2.0"
  },
  "bufferViews": [
    {
      "buffer": 0,
      "byteLength": 7712328,
      "name": "floatBufferViews",
      "target": 34963
    },
    {
      "buffer": 0,
      "byteLength": 13535632,
      "byteOffset": 7712328,
      "byteStride": 8,
      "name": "floatBufferViews",
      "target": 34962
    },
    {
      "buffer": 0,
      "byteLength": 20798040,
      "byteOffset": 21247960,
      "byteStride": 12,
      "name": "floatBufferViews",
      "target": 34962
    },
    {
      "buffer": 0,
      "byteLength": 40000,
      "byteOffset": 42046000,
      "byteStride": 16,
      "name": "floatBufferViews",
      "target": 34962
    }
  ],
  "buffers": [
    {
      "byteLength": 42086000,
      "uri": "scene.bin"
    }
  ],
  "images": [
    {
      "uri": "textures/main_lower_baseColor.jpeg"
    },
    {
      "uri": "textures/main_lower_metallicRoughness.png"
    },
    {
      "uri": "textures/main_upper_baseColor.jpeg"
    },
    {
      "uri": "textures/main_upper_metallicRoughness.png"
    },
    {
      "uri": "textures/tower_baseColor.jpeg"
    },
    {
      "uri": "textures/tower_metallicRoughness.png"
    },
    {
      "uri": "textures/upper_base_baseColor.jpeg"
    },
    {
      "uri": "textures/upper_base_normal.jpeg"
    },
    {
      "uri": "textures/lower_base_baseColor.jpeg"
    },
    {
      "uri": "textures/lower_base_normal.jpeg"
    },
    {
      "uri": "textures/clock_baseColor.png"
    },
    {
      "uri": "textures/gate_baseColor.jpeg"
    },
    {
      "uri": "textures/gate_metallicRoughness.png"
    }
  ],
  "materials": [
    {
      "doubleSided": true,
      "name": "main_lower",
      "pbrMetallicRoughness": {
        "baseColorTexture": {
          "index": 0
        },
        "metallicFactor": 0.0,
        "metallicRoughnessTexture": {
          "index": 1
        }
      }
    },
    {
      "doubleSided": true,
      "name": "main_upper",
      "pbrMetallicRoughness": {
        "baseColorTexture": {
          "index": 2
        },
        "metallicFactor": 0.0,
        "metallicRoughnessTexture": {
          "index": 3
        }
      }
    },
    {
      "doubleSided": true,
      "name": "tower",
      "pbrMetallicRoughness": {
        "baseColorTexture": {
          "index": 4
        },
        "metallicFactor": 0.0,
        "metallicRoughnessTexture": {
          "index": 5
        }
      }
    },
    {
      "doubleSided": true,
      "name": "tower_top",
      "pbrMetallicRoughness": {
        "baseColorFactor": [
          0.361265,
          0.154397,
          0.0906467,
          1.0
        ],
        "roughnessFactor": 0.4584740674161296
      }
    },
    {
      "doubleSided": true,
      "name": "upper_base",
      "normalTexture": {
        "index": 7
      },
      "pbrMetallicRoughness": {
        "baseColorTexture": {
          "index": 6
        },
        "metallicFactor": 0.0,
        "roughnessFactor": 0.9877609027412779
      }
    },
    {
      "doubleSided": true,
      "name": "lower_base",
      "normalTexture": {
        "index": 9
      },
      "pbrMetallicRoughness": {
        "baseColorTexture": {
          "index": 8
        },
        "metallicFactor": 0.0
      }
    },
    {
      "doubleSided": true,
      "name": "clock",
      "pbrMetallicRoughness": {
        "baseColorFactor": [
          0.5839823389523313,
          0.5839823389523313,
          0.5839823389523313,
          1.0
        ],
        "baseColorTexture": {
          "index": 10
        },
        "metallicFactor": 0.0,
        "roughnessFactor": 0.0
      }
    },
    {
      "doubleSided": true,
      "name": "gate",
      "pbrMetallicRoughness": {
        "baseColorTexture": {
          "index": 11
        },
        "metallicFactor": 0.0,
        "metallicRoughnessTexture": {
          "index": 12
        }
      }
    }
  ],
  "meshes": [
    {
      "name": "main_lower_main_lower_0",
      "primitives": [
        {
          "attributes": {
            "NORMAL": 1,
            "POSITION": 0,
            "TEXCOORD_0": 2,
            "TEXCOORD_1": 3
          },
          "indices": 4,
          "material": 0,
          "mode": 4
        }
      ]
    },
    {
      "name": "main_lower_main_lower_0",
      "primitives": [
        {
          "attributes": {
            "NORMAL": 6,
            "POSITION": 5,
            "TEXCOORD_0": 7,
            "TEXCOORD_1": 8
          },
          "indices": 9,
          "material": 0,
          "mode": 4
        }
      ]
    },
    {
      "name": "main_lower_main_lower_0",
      "primitives": [
        {
          "attributes": {
            "NORMAL": 11,
            "POSITION": 10,
            "TEXCOORD_0": 12,
            "TEXCOORD_1": 13
          },
          "indices": 14,
          "material": 0,
          "mode": 4
        }
      ]
    },
    {
      "name": "main_lower_main_lower_0",
      "primitives": [
        {
          "attributes": {
            "NORMAL": 16,
            "POSITION": 15,
            "TEXCOORD_0": 17,
            "TEXCOORD_1": 18
          },
          "indices": 19,
          "material": 0,
          "mode": 4
        }
      ]
    },
    {
      "name": "main_upper_main_upper_0",
      "primitives": [
        {
          "attributes": {
            "NORMAL": 21,
            "POSITION": 20,
            "TEXCOORD_0": 22,
            "TEXCOORD_1": 23
          },
          "indices": 24,
          "material": 1,
          "mode": 4
        }
      ]
    },
    {
      "name": "main_upper_main_upper_0",
      "primitives": [
        {
          "attributes": {
            "NORMAL": 26,
            "POSITION": 25,
            "TEXCOORD_0": 27,
            "TEXCOORD_1": 28
          },
          "indices": 29,
          "material": 1,
          "mode": 4
        }
      ]
    },
    {
      "name": "main_upper_main_upper_0",
      "primitives": [
        {
          "attributes": {
            "NORMAL": 31,
            "POSITION": 30,
            "TEXCOORD_0": 32,
            "TEXCOORD_1": 33
          },
          "indices": 34,
          "material": 1,
          "mode": 4
        }
      ]
    },
    {
      "name": "main_upper_main_upper_0",
      "primitives": [
        {
          "attributes": {
            "NORMAL": 36,
            "POSITION": 35,
            "TEXCOORD_0": 37,
            "TEXCOORD_1": 38
          },
          "indices": 39,
          "material": 1,
          "mode": 4
        }
      ]
    },
    {
      "name": "tower_tower_0",
      "primitives": [
        {
          "attributes": {
            "NORMAL": 41,
            "POSITION": 40,
            "TEXCOORD_0": 42,
            "TEXCOORD_1": 43
          },
          "indices": 44,
          "material": 2,
          "mode": 4
        }
      ]
    },
    {
      "name": "tower_tower_0",
      "primitives": [
        {
          "attributes": {
            "NORMAL": 46,
            "POSITION": 45,
            "TEXCOORD_0": 47,
            "TEXCOORD_1": 48
          },
          "indices": 49,
          "material": 2,
          "mode": 4
        }
      ]
    },
    {
      "name": "tower_tower_0",
      "primitives": [
        {
          "attributes": {
            "NORMAL": 51,
            "POSITION": 50,
            "TEXCOORD_0": 52,
            "TEXCOORD_1": 53
          },
          "indices": 54,
          "material": 2,
          "mode": 4
        }
      ]
    },
    {
      "name": "tower_tower_0",
      "primitives": [
        {
          "attributes": {
            "NORMAL": 56,
            "POSITION": 55,
            "TEXCOORD_0": 57,
            "TEXCOORD_1": 58
          },
          "indices": 59,
          "material": 2,
          "mode": 4
        }
      ]
    },
    {
      "name": "tower_tower_0",
      "primitives": [
        {
          "attributes": {
            "NORMAL": 61,
            "POSITION": 60,
            "TEXCOORD_0": 62,
            "TEXCOORD_1": 63
          },
          "indices": 64,
          "material": 2,
          "mode": 4
        }
      ]
    },
    {
      "name": "tower_top_tower_top_0",
      "primitives": [
        {
          "attributes": {
            "NORMAL": 66,
            "POSITION": 65,
            "TEXCOORD_0": 67
          },
          "indices": 68,
          "material": 3,
          "mode": 4
        }
      ]
    },
    {
      "name": "upper_base_upper_base_0",
      "primitives": [
        {
          "attributes": {
            "NORMAL": 70,
            "POSITION": 69,
            "TANGENT": 71,
            "TEXCOORD_0": 72,
            "TEXCOORD_1": 73
          },
          "indices": 74,
          "material": 4,
          "mode": 4
        }
      ]
    },
    {
      "name": "lower_base_lower_base_0",
      "primitives": [
        {
          "attributes": {
            "NORMAL": 76,
            "POSITION": 75,
            "TANGENT": 77,
            "TEXCOORD_0": 78,
            "TEXCOORD_1": 79
          },
          "indices": 80,
          "material": 5,
          "mode": 4
        }
      ]
    },
    {
      "name": "clock_clock_0",
      "primitives": [
        {
          "attributes": {
            "NORMAL": 82,
            "POSITION": 81,
            "TEXCOORD_0": 83
          },
          "indices": 84,
          "material": 6,
          "mode": 4
        }
      ]
    },
    {
      "name": "gate_gate_0",
      "primitives": [
        {
          "attributes": {
            "NORMAL": 86,
            "POSITION": 85,
            "TEXCOORD_0": 87,
            "TEXCOORD_1": 88
          },
          "indices": 89,
          "material": 7,
          "mode": 4
        }
      ]
    }
  ],
  "nodes": [
    {
      "children": [
        1
      ],
      "matrix": [
        1.0,
        0.0,
        0.0,
        0.0,
        0.0,
        2.220446049250313e-16,
        -1.0,
        0.0,
        0.0,
        1.0,
        2.220446049250313e-16,
        0.0,
        0.0,
        0.0,
        0.0,
        1.0
      ],
      "name": "Sketchfab_model"
    },
    {
      "children": [
        2
      ],
      "matrix": [
        0.009999999776482582,
        0.0,
        0.0,
        0.0,
        0.0,
        0.0,
        0.009999999776482582,
        0.0,
        0.0,
        -0.009999999776482582,
        0.0,
        0.0,
        0.0,
        0.0,
        0.0,
        1.0
      ],
      "name": "29aa3039b7cf4d66b34faaae58d1a396.fbx"
    },
    {
      "children": [
        3,
        28,
        30
      ],
      "name": "RootNode"
    },
    {
      "children": [
        4,
        9,
        14,
        20,
        22,
        24,
        26
      ],
      "matrix": [
        1.0927847515773692e-06,
        2.7755575615628914e-15,
        24.99999999999998,
        0.0,
        24.999999999999954,
        -1.0927847515773692e-06,
        -1.092784752965148e-06,
        0.0,
        1.092784752965148e-06,
        24.99999999999998,
        -4.9960036108132044e-14,
        0.0,
        0.0,
        6.800000190734863,
        0.0,
        1.0
      ],
      "name": "Empty.001"
    },
    {
      "children": [
        5,
        6,
        7,
        8
      ],
      "matrix": [
        -1.6292067939183141e-07,
        0.9999999999999868,
        -1.601323801215458e-23,
        0.0,
        -0.9999999999999868,
        -1.6292067939183141e-07,
        -3.944304526105059e-31,
        0.0,
        -3.003318068601089e-30,
        1.6013238012154304e-23,
        1.0,
        0.0,
        -2.0503931412575756e-37,
        0.0,
        -4.172325134277344e-07,
        1.0
      ],
      "name": "main_lower"
    },
    {
      "mesh": 0,
      "name": "main_lower_main_lower_0"
    },
    {
      "mesh": 1,
      "name": "main_lower_main_lower_0"
    },
    {
      "mesh": 2,
      "name": "main_lower_main_lower_0"
    },
    {
      "mesh": 3,
      "name": "main_lower_main_lower_0"
    },
    {
      "children": [
        10,
        11,
        12,
        13
      ],
      "matrix": [
        -1.6292067939183141e-07,
        0.9999999999999868,
        -1.601323801215458e-23,
        0.0,
        -0.9999999999999868,
        -1.6292067939183141e-07,
        -3.944304526105059e-31,
        0.0,
        -3.003318068601089e-30,
        1.6013238012154304e-23,
        1.0,
        0.0,
        0.0,
        0.0,
        0.0,
        1.0
      ],
      "name": "main_upper"
    },
    {
      "mesh": 4,
      "name": "main_upper_main_upper_0"
    },
    {
      "mesh": 5,
      "name": "main_upper_main_upper_0"
    },
    {
      "mesh": 6,
      "name": "main_upper_main_upper_0"
    },
    {
      "mesh": 7,
      "name": "main_upper_main_upper_0"
    },
    {
      "children": [
        15,
        16,
        17,
        18,
        19
      ],
      "matrix": [
        -1.6292067939183141e-07,
        0.9999999999999868,
        -1.601323801215458e-23,
        0.0,
        -0.9999999999999868,
        -1.6292067939183141e-07,
        -3.944304526105059e-31,
        0.0,
        -3.003318068601089e-30,
        1.6013238012154304e-23,
        1.0,
        0.0,
        0.8735299110412598,
        0.8982940316200256,
        2.5300726890563965,
        1.0
      ],
      "name": "tower"
    },
    {
      "mesh": 8,
      "name": "tower_tower_0"
    },
    {
      "mesh": 9,
      "name": "tower_tower_0"
    },
    {
      "mesh": 10,
      "name": "tower_tower_0"
    },
    {
      "mesh": 11,
      "name": "tower_tower_0"
    },
    {
      "mesh": 12,
      "name": "tower_tower_0"
    },
    {
      "children": [
        21
      ],
      "matrix": [
        -1.6292067939183141e-07,
        0.9999999999999868,
        -1.601323801215458e-23,
        0.0,
        -0.9999999999999868,
        -1.6292067939183141e-07,
        -3.944304526105059e-31,
        0.0,
        -3.003318068601089e-30,
        1.6013238012154304e-23,
        1.0,
        0.0,
        0.8735299110412598,
        0.8981451392173767,
        2.7314069271087646,
        1.0
      ],
      "name": "tower_top"
    },
    {
      "mesh": 13,
      "name": "tower_top_tower_top_0"
    },
    {
      "children": [
        23
      ],
      "matrix": [
        -6.516827175673257e-07,
        3.999999999999947,
        -6.405295204861832e-23,
        0.0,
        -3.999999999999947,
        -6.516827175673257e-07,
        -1.5777218104420236e-30,
        0.0,
        -1.2013272274404356e-29,
        6.405295204861721e-23,
        4.0,
        0.0,
        -4.158697768576392e-31,
        4.963083675318166e-24,
        -0.5926648378372192,
        1.0
      ],
      "name": "upper_base"
    },
    {
      "mesh": 14,
      "name": "upper_base_upper_base_0"
    },
    {
      "children": [
        25
      ],
      "matrix": [
        -6.516827175673257e-07,
        3.999999999999947,
        -6.405295204861832e-23,
        0.0,
        -3.999999999999947,
        -6.516827175673257e-07,
        -1.5777218104420236e-30,
        0.0,
        -1.2013272274404356e-29,
        6.405295204861721e-23,
        4.0,
        0.0,
        -2.186545740622733e-31,
        -1.6543612251060553e-24,
        -0.6086210012435913,
        1.0
      ],
      "name": "lower_base"
    },
    {
      "mesh": 15,
      "name": "lower_base_lower_base_0"
    },
    {
      "children": [
        27
      ],
      "matrix": [
        -3.999999999999954,
        -6.039831963913482e-07,
        9.379572807547955e-15,
        0.0,
        -8.902178018689881e-14,
        6.516827202318609e-07,
        3.9999999999999463,
        0.0,
        -6.039831963913416e-07,
        3.999999999999901,
        -6.516827193436825e-07,
        0.0,
        -3.618201560584566e-08,
        0.8277480006217957,
        0.8093259930610657,
        1.0
      ],
      "name": "clock"
    },
    {
      "mesh": 16,
      "name": "clock_clock_0"
    },
    {
      "children": [
        29
      ],
      "matrix": [
        100.0,
        0.0,
        0.0,
        0.0,
        0.0,
        -1.629206793918314e-05,
        -99.99999999999868,
        0.0,
        0.0,
        99.99999999999868,
        -1.629206793918314e-05,
        0.0,
        0.0,
        3.4529786109924316,
        89.39630126953125,
        1.0
      ],
      "name": "gate"
    },
    {
      "mesh": 17,
      "name": "gate_gate_0"
    },
    {
      "children": [
        31
      ],
      "matrix": [
        -67.81851443429652,
        -19.368903229188806,
        -70.89071280319156,
        0.0,
        -13.389833399907577,
        98.1062896108362,
        -13.995241135421809,
        0.0,
        72.25898374794222,
        0.0007837109332428649,
        -69.12770260250531,
        0.0,
        113.97210693359375,
        59.56736755371094,
        159.6031951904297,
        1.0
      ],
      "name": "Camera"
    },
    {
      "name": "Object_31"
    }
  ],
  "samplers": [
    {
      "magFilter": 9729,
      "minFilter": 9987,
      "wrapS": 10497,
      "wrapT": 10497
    }
  ],
  "scene": 0,
  "scenes": [
    {
      "name": "Sketchfab_Scene",
      "nodes": [
        0
      ]
    }
  ],
  "textures": [
    {
      "sampler": 0,
      "source": 0
    },
    {
      "sampler": 0,
      "source": 1
    },
    {
      "sampler": 0,
      "source": 2
    },
    {
      "sampler": 0,
      "source": 3
    },
    {
      "sampler": 0,
      "source": 4
    },
    {
      "sampler": 0,
      "source": 5
    },
    {
      "sampler": 0,
      "source": 6
    },
    {
      "sampler": 0,
      "source": 7
    },
    {
      "sampler": 0,
      "source": 8
    },
    {
      "sampler": 0,
      "source": 9
    },
    {
      "sampler": 0,
      "source": 10
    },
    {
      "sampler": 0,
      "source": 11
    },
    {
      "sampler": 0,
      "source": 12
    }
  ]
}
